<svg xmlns="http://www.w3.org/2000/svg" width="760" height="560" viewBox="0 0 760 560" role="img" aria-labelledby="title desc">
  <title id="title">Hollow Grid network mark</title>
  <desc id="desc">Minimal decorative axial hex-grid network mark.</desc>
  <defs>
    <linearGradient id="network" x1="132" y1="169" x2="628" y2="391" gradientUnits="userSpaceOnUse">
      <stop offset="0" stop-color="#54a7ff"/>
      <stop offset="0.54" stop-color="#58d5cf"/>
      <stop offset="1" stop-color="#ff6d6d"/>
    </linearGradient>
    <filter id="softGlow" x="-18%" y="-18%" width="136%" height="136%">
      <feGaussianBlur stdDeviation="4" result="blur"/>
      <feMerge>
        <feMergeNode in="blur"/>
        <feMergeNode in="SourceGraphic"/>
      </feMerge>
    </filter>
  </defs>
  <g transform="translate(60 70) scale(1.42)" fill="none" stroke="#2b3c4c" stroke-width="3.2" opacity="0.66">
    <polygon points="148.0,131.9 132.0,159.6 100.0,159.6 84.0,131.9 100.0,104.2 132.0,104.2"/>
    <polygon points="148.0,187.3 132.0,215.0 100.0,215.0 84.0,187.3 100.0,159.6 132.0,159.6"/>
    <polygon points="148.0,242.7 132.0,270.4 100.0,270.4 84.0,242.7 100.0,215.0 132.0,215.0"/>
    <polygon points="148.0,298.1 132.0,325.8 100.0,325.8 84.0,298.1 100.0,270.4 132.0,270.4"/>
    <polygon points="196.0,104.1 180.0,131.8 148.0,131.8 132.0,104.1 148.0,76.4 180.0,76.4"/>
    <polygon points="196.0,159.6 180.0,187.3 148.0,187.3 132.0,159.6 148.0,131.9 180.0,131.9"/>
    <polygon points="196.0,215.0 180.0,242.7 148.0,242.7 132.0,215.0 148.0,187.3 180.0,187.3"/>
    <polygon points="196.0,270.4 180.0,298.1 148.0,298.1 132.0,270.4 148.0,242.7 180.0,242.7"/>
    <polygon points="196.0,325.9 180.0,353.6 148.0,353.6 132.0,325.9 148.0,298.2 180.0,298.2"/>
    <polygon points="244.0,76.4 228.0,104.1 196.0,104.1 180.0,76.4 196.0,48.7 228.0,48.7"/>
    <polygon points="244.0,131.9 228.0,159.6 196.0,159.6 180.0,131.9 196.0,104.2 228.0,104.2"/>
    <polygon points="244.0,187.3 228.0,215.0 196.0,215.0 180.0,187.3 196.0,159.6 228.0,159.6"/>
    <polygon points="244.0,242.7 228.0,270.4 196.0,270.4 180.0,242.7 196.0,215.0 228.0,215.0"/>
    <polygon points="244.0,298.1 228.0,325.8 196.0,325.8 180.0,298.1 196.0,270.4 228.0,270.4"/>
    <polygon points="244.0,353.6 228.0,381.3 196.0,381.3 180.0,353.6 196.0,325.9 228.0,325.9"/>
    <polygon points="292.0,48.7 276.0,76.4 244.0,76.4 228.0,48.7 244.0,21.0 276.0,21.0"/>
    <polygon points="292.0,104.1 276.0,131.8 244.0,131.8 228.0,104.1 244.0,76.4 276.0,76.4"/>
    <polygon points="292.0,159.6 276.0,187.3 244.0,187.3 228.0,159.6 244.0,131.9 276.0,131.9"/>
    <polygon points="292.0,215.0 276.0,242.7 244.0,242.7 228.0,215.0 244.0,187.3 276.0,187.3"/>
    <polygon points="292.0,270.4 276.0,298.1 244.0,298.1 228.0,270.4 244.0,242.7 276.0,242.7"/>
    <polygon points="292.0,325.9 276.0,353.6 244.0,353.6 228.0,325.9 244.0,298.2 276.0,298.2"/>
    <polygon points="292.0,381.3 276.0,409.0 244.0,409.0 228.0,381.3 244.0,353.6 276.0,353.6"/>
    <polygon points="340.0,76.4 324.0,104.1 292.0,104.1 276.0,76.4 292.0,48.7 324.0,48.7"/>
    <polygon points="340.0,131.9 324.0,159.6 292.0,159.6 276.0,131.9 292.0,104.2 324.0,104.2"/>
    <polygon points="340.0,187.3 324.0,215.0 292.0,215.0 276.0,187.3 292.0,159.6 324.0,159.6"/>
    <polygon points="340.0,242.7 324.0,270.4 292.0,270.4 276.0,242.7 292.0,215.0 324.0,215.0"/>
    <polygon points="340.0,298.1 324.0,325.8 292.0,325.8 276.0,298.1 292.0,270.4 324.0,270.4"/>
    <polygon points="340.0,353.6 324.0,381.3 292.0,381.3 276.0,353.6 292.0,325.9 324.0,325.9"/>
    <polygon points="388.0,104.1 372.0,131.8 340.0,131.8 324.0,104.1 340.0,76.4 372.0,76.4"/>
    <polygon points="388.0,159.6 372.0,187.3 340.0,187.3 324.0,159.6 340.0,131.9 372.0,131.9"/>
    <polygon points="388.0,215.0 372.0,242.7 340.0,242.7 324.0,215.0 340.0,187.3 372.0,187.3"/>
    <polygon points="388.0,270.4 372.0,298.1 340.0,298.1 324.0,270.4 340.0,242.7 372.0,242.7"/>
    <polygon points="388.0,325.9 372.0,353.6 340.0,353.6 324.0,325.9 340.0,298.2 372.0,298.2"/>
    <polygon points="436.0,131.9 420.0,159.6 388.0,159.6 372.0,131.9 388.0,104.2 420.0,104.2"/>
    <polygon points="436.0,187.3 420.0,215.0 388.0,215.0 372.0,187.3 388.0,159.6 420.0,159.6"/>
    <polygon points="436.0,242.7 420.0,270.4 388.0,270.4 372.0,242.7 388.0,215.0 420.0,215.0"/>
    <polygon points="436.0,298.1 420.0,325.8 388.0,325.8 372.0,298.1 388.0,270.4 420.0,270.4"/>
  </g>
  <g transform="translate(60 70) scale(1.42)" fill="none" stroke="url(#network)" stroke-linecap="round" stroke-linejoin="round" stroke-width="7" filter="url(#softGlow)" opacity="0.82">
    <path d="M116 131.9 164 159.6 212 131.9 260 159.6 308 187.3"/>
    <path d="M164 270.4 212 242.7 260 270.4 308 242.7 356 270.4 404 242.7"/>
    <path d="M212 131.9 212 187.3 212 242.7"/>
    <path d="M308 187.3 308 242.7 356 270.4"/>
  </g>
  <g transform="translate(60 70) scale(1.42)" stroke="#e8edf2" stroke-width="3.5">
    <circle cx="116" cy="131.9" r="13" fill="#54a7ff"/>
    <circle cx="212" cy="131.9" r="10" fill="#54a7ff"/>
    <circle cx="260" cy="159.6" r="12" fill="#58d5cf"/>
    <circle cx="308" cy="187.3" r="10" fill="#58d5cf"/>
    <circle cx="164" cy="270.4" r="11" fill="#f2be5c"/>
    <circle cx="260" cy="270.4" r="12" fill="#58d5cf"/>
    <circle cx="356" cy="270.4" r="11" fill="#f2be5c"/>
    <circle cx="404" cy="242.7" r="13" fill="#ff6d6d"/>
  </g>
</svg>
